M48
;DRILL file {PCBnew (2010-00-09 BZR 23xx)-stable} date Do 20 Okt 2011 18:12:04 CEST
;FORMAT={-.-/ absolute / metric / decimal}
R,T
VER,1
FMAT,2
METRIC,TZ
TCST,OFF
ICI,OFF
ATC,ON
T1C0.599
T2C0.635
T3C0.813
T4C0.899
T5C1.016
T6C3.299
T7C3.599
%
M47
G05
M71
T1
X99.499Y-18.699
X99.499Y-21.001
X105.601Y-23.251
X114.300Y-38.100
T2
X17.600Y-64.849
X19.550Y-64.800
X21.549Y-64.549
X40.640Y-10.160
X48.049Y-29.299
X50.099Y-29.601
X50.350Y-36.101
X50.599Y-89.700
X50.599Y-91.450
X50.599Y-93.401
X51.600Y-32.149
X51.900Y-30.701
X55.900Y-24.201
X59.601Y-15.799
X65.900Y-4.600
X75.400Y-13.899
X76.650Y-60.249
X78.001Y-6.599
X79.350Y-60.899
X79.850Y-22.949
X80.851Y-61.900
X81.001Y-4.600
X81.600Y-5.677
X82.100Y-13.599
X84.176Y-7.315
X84.300Y-28.900
X85.799Y-12.101
X86.299Y-66.500
X87.600Y-26.700
X88.301Y-9.601
X90.701Y-10.899
X92.199Y-31.399
X92.499Y-13.000
X93.200Y-32.901
X93.401Y-38.001
X94.300Y-34.450
X94.750Y-32.601
X95.313Y-35.052
X95.860Y-33.236
X95.900Y-14.300
X96.520Y-34.925
X97.790Y-28.194
X97.800Y-38.699
X100.599Y-47.501
X102.870Y-41.402
X103.505Y-25.400
X104.140Y-2.540
X104.140Y-7.620
X104.140Y-12.700
X104.140Y-17.780
X104.140Y-24.130
X104.140Y-41.402
X104.300Y-35.700
X105.410Y-40.894
X109.220Y-17.780
X110.401Y-44.300
X111.951Y-37.275
X111.999Y-43.401
X112.395Y-32.639
X113.299Y-23.299
X113.665Y-33.020
X114.300Y-17.780
X115.570Y-33.655
X115.900Y-60.800
X115.999Y-43.406
X116.202Y-65.100
X116.352Y-68.999
X116.586Y-38.608
X116.586Y-40.386
X116.713Y-42.482
X116.799Y-44.501
X119.101Y-49.400
X119.380Y-17.780
X122.799Y-24.399
X123.901Y-45.900
X124.460Y-17.780
X124.496Y-51.346
X125.250Y-59.550
X127.099Y-35.601
X127.508Y-37.592
X127.508Y-38.862
X128.600Y-53.299
X129.540Y-17.780
X134.620Y-2.540
X134.620Y-12.700
X134.620Y-17.780
T3
X13.152Y-64.072
X13.272Y-60.919
X13.358Y-58.379
X13.477Y-66.591
X13.866Y-69.718
X13.980Y-55.288
X14.473Y-52.799
X14.582Y-72.156
X15.469Y-75.181
X15.585Y-49.848
X16.469Y-47.465
X16.571Y-77.473
X17.932Y-80.315
X18.042Y-44.732
X19.296Y-42.522
X19.385Y-82.398
X21.186Y-84.988
X21.285Y-40.074
X22.880Y-38.097
X22.954Y-86.812
X25.146Y-89.078
X25.235Y-35.999
X27.125Y-34.303
X27.183Y-90.597
X29.710Y-92.481
X29.787Y-32.611
X31.925Y-31.239
X31.966Y-93.650
X34.765Y-95.105
X34.821Y-29.997
X37.153Y-28.986
X37.178Y-95.898
X40.170Y-96.886
X40.213Y-28.224
X42.677Y-27.600
X42.680Y-97.282
X45.794Y-97.775
X45.819Y-27.341
X48.334Y-97.765
X48.349Y-27.117
X51.488Y-97.749
X51.491Y-27.361
X53.993Y-97.338
X54.026Y-27.549
X57.089Y-28.301
X57.104Y-96.815
X59.512Y-96.007
X59.558Y-28.890
X62.461Y-30.122
X62.494Y-94.988
X64.745Y-93.810
X64.808Y-31.097
X67.478Y-32.802
X67.523Y-92.321
X69.555Y-90.797
X69.632Y-34.143
X71.996Y-36.220
X72.060Y-88.885
X73.823Y-87.056
X73.911Y-37.892
X75.910Y-40.317
X75.987Y-84.762
X77.434Y-82.674
X77.531Y-42.273
X79.113Y-44.986
X79.200Y-80.066
X80.297Y-77.775
X80.404Y-47.175
X81.521Y-50.122
X81.620Y-74.915
X82.100Y-57.087
X82.337Y-72.476
X82.446Y-52.489
X82.532Y-62.563
X83.180Y-69.441
X83.500Y-66.921
X84.585Y-56.553
X85.067Y-62.436
X99.695Y-6.350
X99.695Y-8.890
X99.695Y-11.430
T4
X2.621Y-56.990
X2.621Y-68.011
X3.503Y-51.989
X3.503Y-73.012
X7.272Y-41.631
X7.272Y-83.370
X7.623Y-57.871
X7.623Y-67.130
X8.504Y-52.870
X8.504Y-72.131
X9.812Y-37.231
X9.812Y-87.770
X11.671Y-44.171
X11.671Y-80.830
X14.211Y-39.771
X14.211Y-85.230
X16.896Y-28.788
X16.896Y-96.213
X20.163Y-32.680
X20.163Y-92.321
X20.787Y-25.522
X20.787Y-99.479
X24.054Y-29.413
X24.054Y-95.588
X30.333Y-20.010
X30.333Y-104.988
X32.070Y-24.785
X32.070Y-100.213
X35.108Y-18.273
X35.108Y-106.726
X36.845Y-23.048
X36.845Y-101.951
X45.959Y-16.360
X45.959Y-21.440
X45.959Y-103.561
X45.959Y-108.641
X51.039Y-16.360
X51.039Y-21.440
X51.039Y-103.561
X51.039Y-108.641
X60.155Y-23.048
X60.155Y-101.951
X61.892Y-18.273
X61.892Y-106.726
X64.930Y-24.785
X64.930Y-100.213
X66.667Y-20.010
X66.667Y-104.988
X72.946Y-29.413
X72.946Y-95.588
X76.213Y-25.522
X76.213Y-99.479
X76.838Y-32.680
X76.838Y-92.321
X80.104Y-28.788
X80.104Y-96.213
X82.789Y-39.771
X82.789Y-85.230
X85.329Y-44.171
X85.329Y-80.830
X87.188Y-37.231
X87.188Y-87.770
X88.496Y-52.870
X88.496Y-72.131
X89.378Y-57.871
X89.378Y-67.130
X89.728Y-41.631
X89.728Y-83.370
X93.497Y-51.989
X93.497Y-73.012
X94.379Y-56.990
X94.379Y-68.011
T5
X91.440Y-5.080
X93.218Y-19.812
X93.218Y-22.352
X93.218Y-24.892
X93.218Y-27.432
X93.218Y-29.972
X93.980Y-5.080
X95.758Y-19.812
X95.758Y-22.352
X95.758Y-24.892
X95.758Y-27.432
X95.758Y-29.972
X96.520Y-5.080
X106.934Y-41.656
X109.474Y-41.656
X109.571Y-63.358
X109.621Y-67.440
X109.621Y-71.250
X112.014Y-41.656
X112.111Y-63.358
X112.161Y-67.440
X112.161Y-71.250
X114.651Y-63.358
X114.701Y-67.440
X114.701Y-71.250
X117.048Y-23.754
X117.048Y-26.294
X117.048Y-28.834
X117.048Y-31.374
X119.588Y-23.754
X119.588Y-26.294
X119.588Y-28.834
X119.588Y-31.374
X132.080Y-21.590
X132.080Y-24.130
X132.080Y-26.670
X132.080Y-29.210
X132.080Y-31.750
X132.080Y-35.560
X132.080Y-38.100
X132.080Y-40.640
X132.080Y-43.180
X132.080Y-45.720
X132.080Y-48.895
X132.080Y-51.435
T6
X5.999Y-5.001
X5.999Y-120.000
X132.999Y-7.501
X132.999Y-117.500
T7
X122.555Y-8.890
T0
M30
