G04 (created by PCBNEW-RS274X (2010-00-09 BZR 23xx)-stable) date Do 20 Okt 2011 18:11:46 CEST*
G01*
G70*
G90*
%MOIN*%
G04 Gerber Fmt 3.4, Leading zero omitted, Abs format*
%FSLAX34Y34*%
G04 APERTURE LIST*
%ADD10C,0.006000*%
%ADD11C,0.015000*%
G04 APERTURE END LIST*
G54D10*
G54D11*
X28937Y-24606D02*
X28749Y-26517D01*
X28194Y-28356D01*
X27292Y-30053D01*
X26078Y-31541D01*
X24598Y-32766D01*
X22908Y-33679D01*
X21073Y-34247D01*
X19162Y-34448D01*
X17250Y-34274D01*
X15407Y-33732D01*
X13705Y-32842D01*
X12208Y-31638D01*
X10973Y-30166D01*
X10047Y-28483D01*
X09467Y-26652D01*
X09252Y-24743D01*
X09413Y-22830D01*
X09943Y-20983D01*
X10821Y-19274D01*
X12014Y-17769D01*
X13477Y-16524D01*
X15154Y-15587D01*
X16981Y-14993D01*
X18888Y-14766D01*
X20803Y-14913D01*
X22653Y-15430D01*
X24368Y-16296D01*
X25881Y-17478D01*
X27137Y-18933D01*
X28086Y-20603D01*
X28692Y-22426D01*
X28933Y-24332D01*
X28937Y-24606D01*
X00001Y00000D02*
X00001Y-49213D01*
X54331Y00000D02*
X00001Y00000D01*
X54331Y-49213D02*
X54331Y00000D01*
X00001Y-49213D02*
X54331Y-49213D01*
M02*
