M48
;DRILL file {PCBnew (2010-00-09 BZR 23xx)-stable} date So 23 Okt 2011 18:44:38 CEST
;FORMAT={-.-/ absolute / metric / decimal}
R,T
VER,1
FMAT,2
METRIC,TZ
TCST,OFF
ICI,OFF
ATC,ON
T1C0.599
T2C0.635
T3C0.813
T4C0.899
T5C1.016
T6C3.299
T7C3.599
%
M47
G05
M71
T1
X179.100Y-61.199
X179.100Y-63.500
X185.202Y-65.750
X193.901Y-80.599
T2
X97.201Y-107.348
X99.151Y-107.300
X101.150Y-107.048
X120.241Y-52.659
X127.650Y-71.798
X129.700Y-72.100
X129.951Y-78.600
X130.200Y-132.199
X130.200Y-133.949
X130.200Y-135.900
X131.201Y-74.648
X131.501Y-73.200
X135.501Y-66.700
X139.202Y-58.298
X145.501Y-47.099
X155.001Y-56.398
X156.251Y-102.748
X157.602Y-49.098
X158.951Y-103.398
X159.451Y-65.448
X160.452Y-104.399
X160.602Y-47.099
X160.660Y-109.598
X161.201Y-48.176
X161.701Y-56.098
X163.777Y-49.814
X163.901Y-71.399
X165.400Y-54.600
X167.201Y-69.200
X167.902Y-52.100
X170.302Y-53.398
X171.801Y-73.899
X172.100Y-55.499
X172.801Y-75.400
X173.002Y-80.500
X173.901Y-76.949
X174.351Y-75.100
X174.915Y-77.551
X175.461Y-75.735
X175.501Y-56.799
X176.121Y-77.424
X177.391Y-70.693
X177.401Y-81.199
X180.200Y-90.000
X182.471Y-83.901
X183.106Y-67.899
X183.741Y-45.039
X183.741Y-50.119
X183.741Y-55.199
X183.741Y-60.279
X183.741Y-66.629
X183.741Y-83.901
X183.901Y-78.199
X185.011Y-83.393
X188.821Y-60.279
X190.002Y-86.799
X191.552Y-79.774
X191.600Y-85.900
X191.996Y-75.138
X192.900Y-65.799
X193.266Y-75.519
X193.901Y-60.279
X193.901Y-121.239
X195.171Y-76.154
X195.501Y-103.299
X195.600Y-85.905
X195.804Y-107.599
X195.953Y-111.498
X196.187Y-81.107
X196.187Y-82.885
X196.314Y-84.981
X196.400Y-87.000
X196.441Y-131.399
X198.702Y-91.900
X198.981Y-60.279
X202.400Y-66.899
X203.502Y-88.400
X204.061Y-60.279
X204.097Y-93.845
X204.851Y-102.050
X206.700Y-78.100
X207.109Y-80.091
X207.109Y-81.361
X209.141Y-60.279
X214.221Y-45.039
X214.221Y-55.199
X214.221Y-60.279
T3
X92.801Y-103.729
X92.801Y-106.269
X93.116Y-100.119
X93.116Y-109.880
X93.558Y-97.620
X93.558Y-112.380
X94.496Y-94.120
X94.496Y-115.880
X95.364Y-91.732
X95.364Y-118.267
X96.896Y-88.448
X96.896Y-121.549
X98.166Y-86.248
X98.166Y-123.749
X100.244Y-83.282
X100.244Y-126.718
X101.874Y-81.336
X101.874Y-128.664
X104.437Y-78.773
X104.437Y-131.227
X106.383Y-77.142
X106.383Y-132.857
X109.352Y-75.065
X109.352Y-134.935
X111.552Y-73.795
X111.552Y-136.205
X114.833Y-72.260
X114.833Y-137.737
X117.221Y-71.392
X117.221Y-138.605
X120.721Y-70.457
X120.721Y-139.543
X123.220Y-70.015
X123.220Y-139.984
X126.830Y-69.700
X126.830Y-140.299
X129.370Y-69.700
X129.370Y-140.299
X132.982Y-70.015
X132.982Y-139.984
X135.481Y-70.457
X135.481Y-139.543
X138.981Y-71.392
X138.981Y-138.605
X141.369Y-72.260
X141.369Y-137.737
X144.650Y-73.795
X144.650Y-136.205
X146.850Y-75.065
X146.850Y-134.935
X149.819Y-77.142
X149.819Y-132.857
X151.765Y-78.773
X151.765Y-131.227
X154.328Y-81.336
X154.328Y-128.664
X155.959Y-83.282
X155.959Y-126.718
X158.036Y-86.248
X158.036Y-123.749
X159.306Y-88.448
X159.306Y-121.549
X160.838Y-91.732
X160.838Y-118.267
X161.707Y-94.120
X161.707Y-115.880
X162.131Y-104.999
X162.644Y-97.620
X162.644Y-112.380
X163.086Y-100.119
X163.086Y-109.880
X164.671Y-104.999
X179.202Y-48.760
X179.202Y-51.300
X179.202Y-53.840
T4
X82.222Y-99.489
X82.222Y-110.510
X83.104Y-94.488
X83.104Y-115.512
X86.873Y-84.130
X86.873Y-125.870
X87.224Y-100.371
X87.224Y-109.629
X88.105Y-95.369
X88.105Y-114.630
X89.413Y-79.731
X89.413Y-130.269
X91.272Y-86.670
X91.272Y-123.330
X93.812Y-82.271
X93.812Y-127.729
X96.497Y-71.288
X96.497Y-138.712
X99.764Y-75.179
X99.764Y-134.821
X100.388Y-68.021
X100.388Y-141.978
X103.655Y-71.912
X103.655Y-138.087
X109.934Y-62.509
X109.934Y-147.488
X111.671Y-67.285
X111.671Y-142.712
X114.709Y-60.772
X114.709Y-149.225
X116.446Y-65.547
X116.446Y-144.450
X125.560Y-58.859
X125.560Y-63.939
X125.560Y-146.060
X125.560Y-151.140
X130.640Y-58.859
X130.640Y-63.939
X130.640Y-146.060
X130.640Y-151.140
X139.756Y-65.547
X139.756Y-144.450
X141.493Y-60.772
X141.493Y-149.225
X144.531Y-67.285
X144.531Y-142.712
X146.268Y-62.509
X146.268Y-147.488
X152.547Y-71.912
X152.547Y-138.087
X155.814Y-68.021
X155.814Y-141.978
X156.439Y-75.179
X156.439Y-134.821
X159.705Y-71.288
X159.705Y-138.712
X162.390Y-82.271
X162.390Y-127.729
X164.930Y-86.670
X164.930Y-123.330
X166.789Y-79.731
X166.789Y-130.269
X168.097Y-95.369
X168.097Y-114.630
X168.979Y-100.371
X168.979Y-109.629
X169.329Y-84.130
X169.329Y-125.870
X173.098Y-94.488
X173.098Y-115.512
X173.980Y-99.489
X173.980Y-110.510
T5
X171.041Y-47.579
X172.819Y-62.311
X172.819Y-64.851
X172.819Y-67.391
X172.819Y-69.931
X172.819Y-72.471
X173.581Y-47.579
X175.359Y-62.311
X175.359Y-64.851
X175.359Y-67.391
X175.359Y-69.931
X175.359Y-72.471
X176.121Y-47.579
X186.535Y-84.155
X189.075Y-84.155
X189.172Y-105.857
X189.222Y-109.939
X189.222Y-113.749
X191.615Y-84.155
X191.712Y-105.857
X191.762Y-109.939
X191.762Y-113.749
X194.252Y-105.857
X194.302Y-109.939
X194.302Y-113.749
X196.649Y-66.253
X196.649Y-68.793
X196.649Y-71.333
X196.649Y-73.873
X199.189Y-66.253
X199.189Y-68.793
X199.189Y-71.333
X199.189Y-73.873
X200.251Y-118.699
X200.251Y-121.239
X200.251Y-125.049
X200.251Y-127.589
X200.251Y-130.129
X200.251Y-132.669
X200.251Y-135.209
X205.420Y-71.498
X207.960Y-71.498
X210.500Y-71.498
X213.040Y-71.498
X215.580Y-71.498
T6
X85.601Y-47.501
X85.601Y-162.499
X212.601Y-50.000
X212.601Y-160.000
T7
X197.203Y-51.300
T0
M30
